<svg xmlns="http://www.w3.org/2000/svg" width="200" height="33" viewBox="0 0 196 33" xmlns:v="https://vecta.io/nano"><path d="M46.676 25.766c-2.07 0-3.801-.719-5.152-2.156s-2.027-3.258-2.027-5.418.676-3.977 1.984-5.414 3-2.156 5.027-2.156c2.113 0 3.801.676 5.027 2.027 1.266 1.355 1.859 3.258 1.859 5.754l-.043.297H42.199c.043 1.398.508 2.539 1.395 3.387s1.941 1.27 3.211 1.27c1.688 0 3.039-.848 4.012-2.539l2.367 1.141c-.637 1.184-1.523 2.16-2.664 2.836-1.141.633-2.406.973-3.844.973zm-4.266-9.309h8.152c-.086-.973-.465-1.82-1.184-2.453s-1.687-.973-2.914-.973c-1.012 0-1.859.297-2.574.93-.762.637-1.227 1.438-1.48 2.496zM64.504 6.133a1.86 1.86 0 0 1-.551 1.355 1.77 1.77 0 0 1-1.352.551c-.508 0-.973-.168-1.352-.551a1.8 1.8 0 0 1-.551-1.355 1.85 1.85 0 0 1 .551-1.352 1.77 1.77 0 0 1 1.352-.551c.508 0 .973.168 1.352.551a1.85 1.85 0 0 1 .551 1.352zm-.551 4.91v14.215h-2.66V11.043zm2.914 0h2.535v1.988h.129a4.93 4.93 0 0 1 1.855-1.734 5.39 5.39 0 0 1 2.621-.676c1.73 0 3.082.504 4.012 1.48.93 1.016 1.395 2.41 1.395 4.273v8.969h-2.66V16.5c-.043-2.328-1.227-3.469-3.508-3.469-1.055 0-1.941.422-2.66 1.313-.719.844-1.055 1.902-1.055 3.086v7.871h-2.664zm20.067 14.469c-1.141 0-2.113-.34-2.875-1.059s-1.141-1.734-1.18-3.004v-7.953h-2.492v-2.453h2.492V6.684h2.66v4.359h3.465v2.453h-3.465v7.109c0 .93.168 1.605.551 1.945s.801.508 1.266.508a3.2 3.2 0 0 0 .633-.086c.211-.043.379-.125.551-.168l.844 2.367c-.719.211-1.562.34-2.449.34zm10.265.254c-2.07 0-3.805-.719-5.156-2.156s-2.027-3.258-2.027-5.418.676-3.977 1.984-5.414 3-2.156 5.027-2.156c2.113 0 3.805.676 5.027 2.027 1.27 1.355 1.859 3.258 1.859 5.754l-.043.297H92.719c.043 1.398.508 2.539 1.395 3.387a4.47 4.47 0 0 0 3.211 1.27c1.691 0 3.043-.848 4.012-2.539l2.367 1.141c-.633 1.184-1.52 2.16-2.66 2.836-1.141.633-2.41.973-3.844.973zm-4.27-9.309h8.152c-.082-.973-.465-1.82-1.18-2.453s-1.691-.973-2.918-.973c-1.012 0-1.855.297-2.574.93-.762.637-1.227 1.438-1.48 2.496zm15.548-11.973V25.3h-2.66V4.484zm5.32 0V25.3h-2.66V4.484zm6.125 1.649c0 .508-.168.977-.547 1.355a1.78 1.78 0 0 1-1.352.551 1.77 1.77 0 0 1-1.352-.551c-.383-.379-.551-.805-.551-1.355 0-.508.168-.973.551-1.352a1.77 1.77 0 0 1 1.352-.551 1.78 1.78 0 0 1 1.352.551c.379.379.547.844.547 1.352zm-.547 4.91v14.215h-2.66V11.043zm9.039 20.984c-.805 0-1.52-.086-2.238-.297-.676-.211-1.309-.508-1.902-.848a6.28 6.28 0 0 1-1.477-1.309 5.1 5.1 0 0 1-.93-1.695l2.535-1.055a3.95 3.95 0 0 0 1.52 1.988c.719.508 1.563.762 2.492.762 1.438 0 2.578-.426 3.379-1.312s1.227-2.074 1.227-3.598v-1.352h-.129a5.2 5.2 0 0 1-2.027 1.777c-.844.422-1.773.633-2.789.633-1.855 0-3.461-.719-4.773-2.199s-1.984-3.301-1.984-5.414.676-3.895 1.984-5.375c1.355-1.48 2.918-2.199 4.773-2.199 1.016 0 1.945.211 2.789.633s1.563 1.016 2.027 1.777h.129v-1.988h2.531v13.625c0 2.285-.633 4.059-1.941 5.371-1.266 1.398-3.043 2.074-5.195 2.074zm.086-8.715c1.309 0 2.406-.465 3.207-1.437.887-.934 1.313-2.203 1.313-3.727 0-1.48-.426-2.707-1.312-3.68-.844-.973-1.941-1.437-3.207-1.437s-2.367.465-3.211 1.438c-.887.973-1.312 2.199-1.312 3.68 0 1.523.426 2.75 1.313 3.684.887 1.016 1.941 1.48 3.211 1.48zm16.008 2.454c-2.07 0-3.801-.719-5.152-2.156s-2.027-3.258-2.027-5.418.676-3.977 1.984-5.414 3-2.156 5.027-2.156c2.109 0 3.801.676 5.027 2.027 1.266 1.355 1.855 3.258 1.855 5.754l-.039.297h-11.152c.043 1.398.504 2.539 1.395 3.387a4.45 4.45 0 0 0 3.207 1.27c1.691 0 3.043-.848 4.016-2.539l2.363 1.141c-.633 1.184-1.52 2.16-2.66 2.836-1.141.633-2.406.973-3.844.973zm-4.266-9.309h8.152c-.086-.973-.465-1.82-1.184-2.453s-1.687-.973-2.914-.973c-1.016 0-1.859.297-2.578.93-.758.637-1.266 1.438-1.477 2.496zm12.84-5.414h2.535v1.988h.125c.426-.676 1.016-1.27 1.859-1.734a5.39 5.39 0 0 1 2.621-.676c1.73 0 3.082.504 4.012 1.48.93 1.016 1.395 2.41 1.395 4.273v8.969h-2.66V16.5c-.043-2.328-1.227-3.469-3.508-3.469-1.055 0-1.941.422-2.66 1.313-.719.844-1.059 1.902-1.059 3.086v7.871h-2.66zm21.629 14.723c-2.113 0-3.844-.719-5.238-2.156-1.395-1.484-2.07-3.301-2.07-5.418 0-2.199.676-4.02 2.07-5.414 1.395-1.437 3.125-2.156 5.238-2.156 1.438 0 2.703.379 3.801 1.098s1.902 1.734 2.449 3.004l-2.449 1.016c-.762-1.777-2.07-2.664-3.969-2.664-1.227 0-2.281.508-3.168 1.48s-1.312 2.199-1.312 3.68c0 1.438.422 2.664 1.313 3.68.887.973 1.941 1.48 3.168 1.48 1.941 0 3.336-.887 4.137-2.664l2.367 1.016a6.37 6.37 0 0 1-2.449 3.004c-1.098.633-2.41 1.016-3.887 1.016zm14.32 0c-2.07 0-3.805-.719-5.156-2.156s-2.027-3.258-2.027-5.418.676-3.977 1.988-5.414 2.996-2.156 5.023-2.156c2.113 0 3.805.676 5.027 2.027 1.27 1.355 1.859 3.258 1.859 5.754l-.043.297H184.55c.043 1.398.508 2.539 1.395 3.387a4.47 4.47 0 0 0 3.211 1.27c1.691 0 3.043-.848 4.012-2.539l2.367 1.141c-.633 1.184-1.52 2.16-2.66 2.836-1.141.633-2.41.973-3.844.973zm-4.266-9.309h8.152c-.086-.973-.465-1.82-1.184-2.453s-1.691-.973-2.914-.973c-1.016 0-1.859.297-2.578.93-.762.637-1.266 1.438-1.477 2.496zM7.898 24.285l-3.887 2.199-.801.465-.973-1.312c-.043-.082-.125-.168-.168-.254-.043-.039-.043-.082-.086-.125a.32.32 0 0 1-.082-.168c0-.043-.043-.043-.043-.086-.043-.086-.086-.129-.129-.211-.082-.211-.211-.383-.293-.594-.043-.082-.086-.211-.129-.297l-.254-.59-.125-.297c-.043-.086-.086-.211-.129-.297s-.039-.125-.082-.211v-.043c0-.043 0-.043-.043-.086l4.73-2.664v.043.043c0 .043 0 .082.043.125.043.129.043.211.086.34 0 .043 0 .086.039.125 0 .086.043.129.043.215 0 .039.043.125.043.168v.043c0 .043 0 .082.043.082 0 .043 0 .043.043.086 0 .043 0 .043.039.086 0 .043.043.043.043.082 0 0 0 .043.043.043 0 .043 0 .043.043.086.043.125.086.254.168.379 0 .043.043.086.086.129.125.254.254.551.422.805 0 .039.043.039.043.082.043.043.043.086.082.129s.043.082.086.125.043.086.086.129.039.082.082.125.086.129.129.172c0 0 0 .039.043.039.039.043.082.129.125.172s.086.082.086.125l.336.383a.55.55 0 0 0 .211.211zm0 0" fill="rgb(10.980392%,28.235294%,50.196078%)"/><path d="M22.809 9.012l-2.531 1.438a2.43 2.43 0 0 1-2.41 0 8.38 8.38 0 0 0-3.969-.973c-4.73 0-8.617 3.852-8.617 8.633 0 .254 0 .465.043.719.039.297.039.59.125.844L.676 22.34c-.086-.254-.168-.508-.211-.805-.297-1.102-.422-2.285-.422-3.512 0-7.617 6.293-13.836 13.938-13.793 3.422.043 6.59 1.313 9 3.387.422.422.336 1.141-.172 1.395zm0 0" fill="rgb(90.588235%,54.117647%,11.764706%)"/><path d="M27.754 18.742c0 .34-.043.676-.086 1.016-.379 3.129-1.773 5.922-3.844 8.082l-.043.039c-.973.977-2.113 1.906-3.547 2.625-.043 0-.043.043-.086.043-.973.508-2.027.887-3.125 1.141h-.043c-1.012.254-2.07.34-3.125.34-.676 0-1.352-.043-2.027-.129-3.254-.465-6.125-2.07-8.238-4.398-.043-.043-.082-.125-.125-.168l-.172-.172c-.039-.039-.082-.125-.168-.168l.805-.465 3.887-2.199.379.379c.043.043.086.086.125.086.129.082.254.211.383.297.039.039.125.082.168.125s.086.086.168.129c.043.039.086.082.168.082h.043c.043.043.086.043.129.086s.125.086.168.086c0 0 .043 0 .043.039.043.043.082.043.125.086 0 0 .043 0 .043.043 0 0 .043 0 .043.043h.043.039l.043.043c.086.039.129.082.211.082.043 0 .043 0 .086.043h.043c.043.043.125.043.168.086a2.06 2.06 0 0 0 .297.125c.043 0 .082.043.125.043a4.08 4.08 0 0 0 .676.211h.043l.422.129c.086.043.211.043.297.043.043 0 .082 0 .168.039.043 0 .129 0 .168.043h.129c.082 0 .168 0 .254.043h.168c.211 0 .465.043.676.043 3.633 0 6.758-2.285 8.027-5.5.211-.465.59-.848 1.055-1.102l3.547-1.988c.508-.336 1.141 0 1.27.551zm0 0" fill="rgb(100%,65.098039%,33.333333%)"/><g fill="rgb(10.980392%,28.235294%,50.196078%)"><path d="M7.898 24.285l-3.887 2.199-.801.465a14.06 14.06 0 0 1-2.492-4.57l4.73-2.664v.043.043c0 .043 0 .082.043.125.043.129.043.211.082.34 0 .043 0 .086.043.125 0 .086.043.129.043.215.043.125.086.211.086.336 0 .043.039.086.039.172s.043.082.043.168c.086.254.211.508.34.762.043.043.043.125.082.168l.129.254s0 .043.043.043c0 .043.043.043.043.086.039.125.125.211.211.293l.25.383c.043.043.086.125.129.168 0 0 0 .043.043.043.043.043.082.129.125.168s.086.086.086.129c.211.125.379.34.59.508zm18.461-10.324l-3.125 1.734c-.465.254-1.059.043-1.227-.465a7.89 7.89 0 0 0-1.605-2.75c-.336-.422-.254-1.059.211-1.312l3.168-1.777c.379-.211.844-.125 1.098.215a12.94 12.94 0 0 1 1.859 3.258c.129.422 0 .887-.379 1.098zm0 0"/><path d="M20.488 17.262l-3.887 2.156c-.465.254-1.016.043-1.227-.422-.211-.551-.465-1.141-.801-1.648-.254-.469-.551-.891-.805-1.227-.293-.426-.168-1.016.297-1.23l3.887-2.156c.379-.211.844-.125 1.098.254.254.34.59.848.93 1.395.336.594.633 1.313.887 1.906.168.297 0 .762-.379.973zm0 0"/></g></svg>