<svg xmlns="http://www.w3.org/2000/svg" id="Layer_1" data-name="Layer 1" viewBox="0 0 1612.63 290.19"><defs><style>      .cls-1 {        fill: none;        stroke: #fff;        stroke-miterlimit: 10;        stroke-width: 3.05px;      }      .cls-2 {        fill: #fff;        stroke-width: 0px;      }    </style></defs><g><g id="Group_41" data-name="Group 41"><path id="Path_33" data-name="Path 33" class="cls-2" d="M210.04,213.07v-109.3h11.08l.08,98.6,51.84.08.08,10.63h-63.08ZM325.72,215.34c-10.88,0-20.06-2.42-27.55-7.25-7.52-4.87-13.44-11.85-17-20.08-4-9.35-5.97-19.44-5.77-29.6-.2-10.17,1.76-20.26,5.77-29.6,3.56-8.22,9.48-15.2,17-20.08,7.49-4.83,16.67-7.25,27.55-7.25s20.13,2.42,27.59,7.25c7.51,4.89,13.42,11.87,17,20.08,4.03,9.34,6.01,19.43,5.81,29.6.2,10.17-1.78,20.26-5.81,29.6-3.58,8.21-9.49,15.19-17,20.08-7.46,4.83-16.66,7.25-27.59,7.25h0ZM325.72,204.64c8.55,0,15.68-1.95,21.4-5.84,5.82-4.02,10.3-9.69,12.87-16.28,2.99-7.67,4.45-15.86,4.29-24.09.16-8.22-1.29-16.4-4.29-24.06-2.57-6.58-7.05-12.23-12.87-16.24-5.72-3.9-12.85-5.87-21.4-5.92-8.55,0-15.66,1.95-21.33,5.84-5.78,4.04-10.23,9.71-12.79,16.28-2.99,7.68-4.48,15.86-4.37,24.09-.21,8.21,1.22,16.38,4.21,24.02,2.59,6.57,7.07,12.22,12.87,16.24,5.72,3.92,12.85,5.91,21.4,5.96h0ZM434.03,215.34c-10.88,0-20.06-2.42-27.55-7.25-7.53-4.87-13.44-11.85-17.01-20.08-4-9.35-5.97-19.44-5.77-29.6-.2-10.16,1.76-20.25,5.77-29.6,3.56-8.22,9.48-15.21,17-20.08,7.49-4.83,16.67-7.25,27.55-7.25,12.7,0,23.07,3.25,31.12,9.75,8.18,6.71,13.98,15.88,16.55,26.15l-11.38,2.96c-1.92-8-6.3-15.19-12.52-20.57-6.02-5.06-13.94-7.59-23.76-7.59-8.55,0-15.66,1.95-21.33,5.84-5.78,4.04-10.23,9.7-12.78,16.28-2.99,7.68-4.5,15.85-4.44,24.09-.21,8.22,1.22,16.4,4.21,24.06,2.59,6.59,7.08,12.26,12.9,16.28,5.74,3.92,12.89,5.88,21.44,5.88,9.82,0,17.74-2.54,23.76-7.63,6.2-5.38,10.58-12.55,12.52-20.53l11.38,2.96c-2.56,10.27-8.37,19.44-16.55,26.16-8.05,6.5-18.42,9.75-31.12,9.75h0ZM539.53,215.34c-7.69.16-15.29-1.62-22.12-5.16-6.3-3.34-11.53-8.39-15.08-14.58-3.76-6.72-5.64-14.32-5.47-22.01v-69.75l11.23-.08v68.39c-.13,5.05.86,10.06,2.88,14.69,1.75,3.9,4.33,7.37,7.55,10.17,3,2.59,6.46,4.59,10.21,5.88,3.46,1.22,7.1,1.87,10.78,1.9,3.7-.03,7.36-.67,10.85-1.9,3.74-1.29,7.19-3.29,10.17-5.88,3.2-2.81,5.77-6.28,7.51-10.17,2.02-4.62,3.01-9.64,2.89-14.68v-68.39h11.23v69.83c.18,7.68-1.7,15.28-5.46,21.98-3.56,6.17-8.78,11.21-15.07,14.57-6.82,3.57-14.43,5.35-22.12,5.2h0ZM635.32,215.34c-7.06.11-14.06-1.19-20.61-3.83-5.84-2.37-11.02-6.1-15.1-10.89-4.02-4.81-6.7-10.59-7.78-16.77l11.38-1.9c1.63,6.8,5.74,12.74,11.53,16.65,6.22,4.13,13.56,6.23,21.03,6.03,4.92.08,9.82-.78,14.42-2.54,3.93-1.46,7.4-3.97,10.02-7.25,2.45-3.2,3.73-7.13,3.64-11.16.07-2.5-.45-4.99-1.52-7.25-.96-1.93-2.33-3.63-4.02-4.97-1.68-1.32-3.51-2.43-5.47-3.3-1.87-.85-3.8-1.57-5.77-2.16l-27.7-8.27c-3.2-.91-6.31-2.14-9.26-3.68-2.72-1.41-5.22-3.23-7.4-5.39-2.11-2.11-3.77-4.63-4.89-7.4-1.21-3.1-1.81-6.4-1.75-9.72-.14-5.72,1.56-11.33,4.86-16.01,3.39-4.62,7.98-8.22,13.28-10.4,6.08-2.52,12.62-3.73,19.2-3.57,6.72-.12,13.38,1.2,19.54,3.87,5.58,2.45,10.47,6.25,14.23,11.04,3.83,4.96,6.38,10.79,7.44,16.96l-11.69,2.12c-.65-4.51-2.46-8.77-5.24-12.37-2.76-3.51-6.34-6.29-10.44-8.08-4.39-1.93-9.13-2.93-13.93-2.92-4.49-.08-8.94.76-13.09,2.47-3.54,1.44-6.66,3.75-9.07,6.72-2.2,2.76-3.38,6.19-3.34,9.72-.16,3.24.94,6.42,3.07,8.88,2.12,2.28,4.71,4.06,7.59,5.24,2.86,1.21,5.79,2.25,8.77,3.11l21.4,6.3c2.23.61,4.85,1.48,7.86,2.62,3.14,1.21,6.1,2.85,8.8,4.86,2.94,2.19,5.36,5,7.1,8.24,2.01,4,2.98,8.43,2.81,12.9.08,4.7-.95,9.36-3,13.59-1.98,3.98-4.87,7.43-8.42,10.1-3.82,2.83-8.11,4.95-12.68,6.26-5.14,1.49-10.47,2.21-15.82,2.17h0ZM805.1,213.07l-.08-98.6-38.18-.08v-10.63h87.52v10.71l-38.25-.08.08,98.67h-11.08Z"></path><path id="Path_32" data-name="Path 32" class="cls-2" d="M758.04,165.32l-26.54-19.1c-.16-.12-.34-.23-.52-.32-.69-.56-1.57-.84-2.45-.79h0c-.89-.05-1.76.23-2.46.79-.18.09-.35.2-.52.32l-26.54,19.1c-.41.35-.45.96-.1,1.37.02.02.03.04.05.05l6.97,6.08c.2.18.5.2.71.04l19.73-14.41c1.32-.85,3.01-.85,4.33,0l19.72,14.41c.22.16.51.14.71-.04l6.97-6.08c.38-.38.37-1,0-1.37-.02-.02-.04-.03-.05-.05Z"></path><g><path class="cls-2" d="M56.76,173.56c0-3.51-1.87-6.76-4.92-8.51L0,135.12v56.51c0,5.63,3.01,10.83,7.89,13.65l48.86,28.22h.01s0-59.93,0-59.93Z"></path><path class="cls-2" d="M1.21,111.84s0-.02.01-.03c0,.01,0,.02-.01.03Z"></path><path class="cls-2" d="M102.22,122.53c0,3.51,1.87,6.76,4.92,8.51l52.15,30.13v-43.3c0-5.64-3.01-10.84-7.89-13.67l-49.17-28.39v46.72Z"></path><path class="cls-2" d="M1.61,110.97s.03-.07.05-.1c-.02.03-.03.06-.05.1Z"></path><path class="cls-2" d="M79.7,65.25s-.05,0-.08,0c.03,0,.05,0,.08,0Z"></path><path class="cls-2" d="M86.39,145.42c-.44-.25-.85-.53-1.24-.85-3.55-1.9-5.76-5.59-5.76-9.62v-69.7c-2.63.04-5.26.73-7.63,2.08L7.89,104.21c-2.71,1.57-4.83,3.88-6.19,6.58,1.48.16,2.92.63,4.21,1.37l150.7,87c.2.12.4.24.58.35,1.38-2.4,2.1-5.12,2.1-7.88v-4.13l-72.89-42.08Z"></path><path class="cls-2" d="M79.65,181.09s-.06,0-.06.04v59.78c0,1.12-.17,2.24-.49,3.31,2.9.1,5.82-.59,8.43-2.08l48.95-28.25h0s-56.83-32.81-56.83-32.81Z"></path></g></g><path class="cls-2" d="M874.47,126.57c-1.56,0-3.02-.29-4.39-.88-1.37-.58-2.58-1.4-3.62-2.44s-1.86-2.25-2.44-3.62c-.58-1.37-.88-2.84-.88-4.42s.29-3.02.88-4.38c.58-1.36,1.4-2.56,2.44-3.6,1.04-1.04,2.25-1.85,3.62-2.44,1.37-.59,2.83-.89,4.39-.89s3.04.3,4.4.89c1.36.59,2.57,1.41,3.61,2.44,1.04,1.04,1.86,2.24,2.44,3.6.58,1.36.88,2.82.88,4.38s-.29,3.05-.88,4.42c-.58,1.37-1.4,2.58-2.44,3.62-1.04,1.04-2.25,1.86-3.61,2.44-1.36.58-2.83.88-4.4.88ZM874.49,123.91c1.59,0,3.04-.39,4.35-1.18,1.31-.79,2.35-1.83,3.13-3.14.78-1.31,1.17-2.76,1.17-4.37s-.39-3.04-1.17-4.35-1.82-2.35-3.13-3.13c-1.31-.78-2.76-1.17-4.35-1.17s-3.06.39-4.37,1.17c-1.31.78-2.35,1.82-3.13,3.13-.78,1.31-1.17,2.76-1.17,4.35s.39,3.06,1.17,4.37c.78,1.31,1.82,2.36,3.13,3.14,1.31.79,2.76,1.18,4.37,1.18ZM870.66,120.59v-10.86h4.74c1.01,0,1.86.34,2.55,1.02.68.68,1.04,1.51,1.05,2.51,0,.64-.17,1.25-.51,1.83-.34.58-.84,1.03-1.5,1.34l2.06,4.16h-2.06l-1.87-3.81h-2.64v3.81h-1.82ZM872.48,115.08h2.92c.47,0,.87-.18,1.22-.53.34-.35.51-.78.51-1.3,0-.54-.18-.98-.53-1.31-.35-.33-.75-.49-1.2-.49h-2.92v3.62Z"></path></g><line class="cls-1" x1="1004.83" y1="23.99" x2="1004.83" y2="279.42"></line><g><path class="cls-2" d="M1369.51,85.15c0,12.5-1.8,22.8-5.23,31.05-3.51,8.17-8.58,15.53-15.53,24.03-4,4.9-28.08,30.68-49.16,54.05-40.78.49-68.78,5.24-92.07,22.15-2.78,2.04-7.81,5.63-10.34,7.84l101.8-102.76c7.93-8.09,13.48-13.57,16.75-19.78,3.27-6.13,4.9-11.93,4.9-17.24,0-7.68-1.55-14.55-4.74-20.51-3.11-5.97-7.6-10.71-13.24-14.14-5.72-3.43-12.42-5.15-20.1-5.15s-15.12,1.8-21.17,5.48c-6.13,3.68-10.87,8.5-14.22,14.46-3.43,6.05-4.98,12.5-4.74,19.53h-48.87c0-17.24,3.76-32.12,11.36-44.7,7.52-12.59,18.06-22.31,31.54-29.17,13.48-6.86,29.26-10.3,47.15-10.3,16.43,0,31.14,3.6,44.05,10.79,12.99,7.11,23.21,17.08,30.65,29.91,7.44,12.75,11.2,27.62,11.2,44.46Z"></path><path class="cls-2" d="M1438.63,148.13c6.01-3.19,13.79-4.79,23.31-4.79,7.78,0,14.89,1.88,21.35,5.65,6.45,3.75,11.61,8.84,15.43,15.23,3.83,6.39,5.69,13.47,5.73,21.25.06,17.34-4.06,40.16-27.91,52.77,14.83,1.41,30.62-.6,44.39-6.54,15.96-6.89,27.81-19.73,32.61-36.51,3.46-12.09,3.7-25.27.64-37.47-4.2-16.73-14.75-31.61-28.5-41.89-14.66-10.97-32.8-17.59-51.12-18.33-14.72-.6-29.83,2.06-42.81,9.26l3.59-58.97h102.59V.02h-147.83l-8.28,144.08,43.26,13.17c3.01-2.89,7.52-5.93,13.55-9.14Z"></path><g><polygon class="cls-2" points="1288.22 224.69 1294.7 224.39 1290.97 214.31 1288.22 224.69"></polygon><path class="cls-2" d="M1521.82,257.63c-.73-1.06-1.64-1.82-2.73-2.27-1.1-.45-2.37-.53-3.82-.26-1.45.29-2.59.86-3.41,1.7-.82.85-1.36,1.91-1.6,3.19-.24,1.28-.2,2.7.13,4.28.33,1.58.85,2.9,1.57,3.96.72,1.06,1.63,1.82,2.72,2.27,1.1.45,2.37.53,3.82.25,1.45-.29,2.59-.86,3.42-1.71.83-.85,1.36-1.91,1.6-3.19.24-1.28.2-2.7-.13-4.28-.33-1.58-.85-2.9-1.58-3.96Z"></path><path class="cls-2" d="M1325.42,217.06c-.3-.43-.74-.76-1.33-.99-.21-.09-.43-.16-.68-.2-.25-.05-.48-.08-.68-.11l-5.22-.67-.94,7.37,5.22.67c.2.03.43.04.69.06.25.01.49,0,.71-.03.62-.07,1.14-.28,1.53-.62.4-.34.7-.74.91-1.21.21-.47.34-.93.4-1.4.06-.46.05-.95-.04-1.46-.08-.51-.28-.98-.58-1.41Z"></path><path class="cls-2" d="M1437.19,255.02c.46-.08.86-.27,1.21-.59.35-.31.6-.75.76-1.31.21-.73.16-1.41-.17-2.04-.33-.63-.91-1.06-1.75-1.31l-4.75-1.39-1.5,5.13,4.75,1.39c.51.15.99.18,1.45.1Z"></path><path class="cls-2" d="M1563.35,184.53c-2.29,25.58-16.75,38.9-24.03,44.7-1.63,1.31-2.86,2.12-3.43,2.53-2.62,1.72-5.39,3.27-8.34,4.66-12.5,6.05-27.38,9.07-42.82,9.07-3.02,0-6.13-.08-9.15-.33-1.55-.16-3.11-.24-4.58-.49-5.72-.65-11.36-1.72-17-3.27-1.96-.57-3.84-1.14-5.8-1.8-5.39-1.8-12.75-4.9-21.33-8.58-28.68-12.26-72.08-30.89-122.26-31.54h-7.76c-40.78.49-72.98,9.32-96.27,26.23-2.78,2.04-5.39,4.25-7.93,6.46-3.68,3.35-7.11,6.86-10.22,10.62l-.41.49,32.2,38c5.39-6.54,13.48-13.4,23.62-19.37,1.63-.98,3.43-1.96,5.15-2.94,9.89-5.23,21.33-9.64,33.83-12.26,2.62-.49,5.23-.98,7.84-1.39.82-.08,1.72-.25,2.62-.33,4.82-.57,9.64-.9,14.63-.9h1.63c39.88.57,76.25,16.1,102.81,27.46,9.56,4.17,17.82,7.68,25.25,10.13,10.95,3.6,22.15,6.05,33.34,7.35,3.02.41,6.05.65,9.15.82,3.43.24,6.86.33,10.38.33,3.27,0,6.62-.08,9.89-.25,25.58-1.55,49.93-7.68,69.79-20.84l.65-.41c1.88-1.31,47.81-31.38,47.81-84.09l-49.28-.08ZM1241.53,246.97l-4.25-7.95-12.73-7.93,3.79-2.02,8.6,5.36.32-10.11,3.79-2.02-.47,14.98,4.25,7.95-3.29,1.76ZM1259.78,238.53l-5.9-21.2,13.69-3.81.93,3.33-10.15,2.82,1.45,5.23,8.38-2.33.93,3.33-8.38,2.33,1.67,5.99,10.15-2.82.92,3.33-13.69,3.81ZM1297.69,232.47l-1.74-4.69-8.66.39-1.28,4.83-3.79.17,5.93-22.3,5.39-.25,7.93,21.67-3.79.17ZM1328.18,235.16l-4.14-.53-2.72-8.1-5.19-.66-.98,7.63-3.65-.47,2.8-21.83,9.02,1.16c.21.03.48.07.82.13.33.06.63.13.91.22,1.24.35,2.23.91,2.97,1.66.74.75,1.25,1.65,1.52,2.68.27,1.04.33,2.16.18,3.36-.23,1.78-.87,3.25-1.94,4.41-.68.74-1.59,1.18-2.6,1.47l3,8.88ZM1346.93,223.98c.24.41.56.77.99,1.08.42.31.86.59,1.31.83l3.57,2.01c.49.27,1.03.6,1.63,1,.59.4,1.14.88,1.64,1.46.5.57.86,1.25,1.08,2.04.22.79.2,1.72-.06,2.79-.27,1.11-.74,2.02-1.41,2.75-.67.72-1.46,1.26-2.38,1.63-.92.36-1.91.56-2.99.59-1.07.03-2.16-.09-3.26-.36-1.56-.38-2.9-1-4.02-1.86-1.12-.85-1.95-1.88-2.51-3.1-.56-1.21-.77-2.54-.65-3.99l3.85.35c0,1.34.41,2.48,1.23,3.42.82.94,1.86,1.56,3.15,1.88.76.19,1.51.25,2.24.17.73-.07,1.36-.28,1.89-.64.53-.35.88-.86,1.04-1.52.07-.3.09-.58.05-.86-.04-.28-.13-.54-.27-.78s-.35-.49-.61-.73c-.26-.24-.58-.46-.94-.68l-5.12-2.99c-.44-.26-.91-.57-1.4-.94-.49-.37-.93-.82-1.32-1.35-.39-.53-.66-1.15-.81-1.87-.15-.72-.12-1.54.12-2.48.34-1.38.97-2.44,1.9-3.21.93-.76,2.04-1.23,3.34-1.41,1.3-.17,2.67-.08,4.11.29,1.46.37,2.71.94,3.73,1.71,1.03.77,1.81,1.72,2.35,2.84.54,1.12.81,2.38.8,3.77l-4.01-.28c.03-.79-.12-1.51-.44-2.15-.32-.64-.77-1.18-1.35-1.62-.58-.44-1.23-.76-1.96-.96-.71-.19-1.4-.24-2.06-.17-.66.07-1.23.27-1.7.6-.47.32-.78.76-.91,1.32-.13.53-.08.99.16,1.4ZM1390.6,237.94c.1.25.24.54.4.86.17.32.34.65.52,1l3.45,6.7c.08-.19.16-.39.24-.62.08-.23.16-.44.23-.64l.92-2.53,3.05,1.11-1.36,3.75c-.19.52-.38,1.01-.59,1.49-.2.47-.41.85-.61,1.14l1.72,3.29-3.09,1.56-1.31-2.62c-.65.28-1.33.46-2.02.54-.69.08-1.35.07-1.99-.02-.47-.05-.91-.13-1.31-.24-.41-.11-.81-.24-1.23-.39-1.15-.42-2.17-.98-3.07-1.69-.9-.71-1.55-1.56-1.96-2.54-.33-.8-.49-1.61-.48-2.41,0-.81.14-1.62.41-2.45.29-.8.69-1.52,1.19-2.19.51-.66,1.11-1.19,1.8-1.59.27-.16.56-.29.85-.38.29-.09.57-.17.86-.23-.34-.84-.54-1.61-.62-2.31-.08-.7.03-1.45.32-2.26.44-1.21,1.16-2.17,2.16-2.89,1-.72,2.13-1.09,3.41-1.1.55,0,1.1.05,1.62.17.53.12,1.03.26,1.51.43.9.33,1.72.78,2.45,1.35.73.58,1.28,1.28,1.64,2.1.24.49.41,1,.5,1.54.09.54.11,1.06.06,1.58l-3.68-.51c.02-.48-.08-.93-.3-1.36-.19-.38-.46-.69-.82-.92-.36-.23-.73-.42-1.11-.56-.61-.22-1.19-.31-1.74-.26-.55.05-1,.22-1.36.51-.36.29-.64.71-.83,1.24-.17.48-.22.89-.15,1.25.07.35.19.72.34,1.11ZM1442.77,254.12c-.34,1.17-.9,2.07-1.69,2.72-.53.44-1.14.68-1.79.82.8.61,1.43,1.32,1.75,2.21.41,1.16.44,2.35.08,3.57-.37,1.25-.92,2.28-1.68,3.08-.75.8-1.68,1.32-2.78,1.58-1.1.25-2.34.18-3.73-.23l-9.23-2.69,6.17-21.13,8.38,2.45c1.43.42,2.52,1.05,3.26,1.88.75.84,1.21,1.77,1.4,2.79.18,1.02.14,2-.14,2.95ZM1469.57,256.75l-10.39-1.74-.9,5.35,8.58,1.44-.57,3.41-8.58-1.44-1.03,6.14,10.39,1.74-.57,3.41-14.02-2.35,3.64-21.71,14.02,2.35-.57,3.41ZM1490.18,267.52l-.11,9.02-3.73-.05.11-9.02-7.33-13.08,4.29.05,4.95,8.84,5.15-8.71,4.29.05-7.63,12.9ZM1527.19,266.92c-.47,1.86-1.38,3.42-2.73,4.68-1.35,1.26-3.1,2.12-5.25,2.56-2.16.45-4.1.36-5.83-.27-1.73-.62-3.18-1.7-4.36-3.21-1.17-1.52-1.99-3.39-2.45-5.61-.46-2.22-.45-4.27.02-6.12.47-1.86,1.38-3.42,2.72-4.68,1.34-1.26,3.09-2.11,5.24-2.56,2.16-.45,4.1-.36,5.84.27,1.74.62,3.19,1.69,4.36,3.21,1.17,1.52,1.99,3.39,2.45,5.61.46,2.23.45,4.27-.02,6.12ZM1556.3,258.85l-16.63-8.27,7.81,13.41-3.22,1.88-11.07-19.02,3.22-1.88,16.63,8.27-7.81-13.41,3.22-1.88,11.08,19.02-3.22,1.88ZM1578.77,237.45c-.26.43-.55.87-.87,1.32-.33.44-.55.74-.66.88l-4.26,5.57-17.48-13.38,4.26-5.57c.11-.15.34-.43.68-.86.34-.43.69-.83,1.05-1.19,1.24-1.25,2.63-2.04,4.16-2.39,1.54-.34,3.12-.28,4.75.18,1.62.46,3.18,1.26,4.66,2.39,1.48,1.13,2.66,2.42,3.52,3.87.87,1.45,1.34,2.96,1.41,4.53.07,1.58-.33,3.12-1.21,4.64Z"></path><path class="cls-2" d="M1435.34,258.38l-5.31-1.55-1.77,6.06,5.21,1.52c.62.18,1.21.22,1.77.11.56-.11,1.05-.35,1.46-.72.41-.37.71-.87.89-1.5.17-.57.19-1.11.08-1.63-.11-.52-.37-.99-.76-1.39-.39-.41-.91-.71-1.57-.9Z"></path><path class="cls-2" d="M1575.02,229.87c-.64-.89-1.42-1.68-2.34-2.38-.95-.72-1.93-1.28-2.96-1.67-1.03-.39-2.02-.54-2.99-.45-.97.09-1.84.48-2.61,1.17-.29.24-.58.55-.88.91-.3.37-.54.67-.73.91l-1.99,2.6,11.97,9.16,1.99-2.6c.19-.24.41-.56.69-.95.27-.39.49-.75.66-1.08.48-.94.62-1.9.44-2.86-.19-.96-.6-1.89-1.25-2.77Z"></path><path class="cls-2" d="M1388.05,242.29c-.26.07-.49.18-.7.31-.27.17-.51.4-.73.69-.22.28-.4.62-.54,1-.15.44-.22.86-.21,1.25.01.39.08.76.2,1.11.18.57.56,1.06,1.14,1.48.57.42,1.16.74,1.75.95.3.11.58.19.86.26.27.07.55.1.83.11.39.02.74,0,1.05-.04.31-.05.58-.12.83-.2l-3.65-7.02c-.29,0-.57.04-.83.11Z"></path></g></g></svg>