<svg xmlns="http://www.w3.org/2000/svg" xmlns:xlink="http://www.w3.org/1999/xlink" id="Layer_1" x="0px" y="0px" width="166px" height="45px" viewBox="0 0 166 45" xml:space="preserve">
<g>
	<path fill="#816D43" d="M102.134,42.016h-1.026v-1.483c-0.512,0.971-1.457,1.536-2.69,1.536c-1.97,0-3.331-1.459-3.331-3.521   c0-2.072,1.361-3.504,3.322-3.504c1.23,0,2.188,0.564,2.699,1.55v-4.321h1.026V42.016z M101.107,38.577   c0-1.511-1.037-2.603-2.496-2.603c-1.469,0-2.508,1.092-2.508,2.603c0,1.493,1.039,2.573,2.508,2.573   C100.07,41.15,101.107,40.07,101.107,38.577"></path>
	<path fill="#816D43" d="M110.961,33.111c0,0.41-0.288,0.713-0.669,0.713c-0.382,0-0.668-0.303-0.668-0.713   c0-0.402,0.286-0.707,0.668-0.707C110.673,32.404,110.961,32.709,110.961,33.111 M109.795,35.096h1.007v6.92h-1.007V35.096z"></path>
	<path fill="#816D43" d="M124.426,41.293c0,2.021-1.381,3.293-3.48,3.293c-1.092-0.013-1.993-0.363-2.838-0.998l0.473-0.786   c0.686,0.563,1.406,0.866,2.326,0.882c1.511,0,2.494-0.92,2.494-2.365V40.27c-0.488,0.918-1.377,1.444-2.545,1.444   c-1.864,0-3.151-1.383-3.151-3.349c0-1.932,1.271-3.295,3.121-3.311c1.187,0,2.075,0.525,2.575,1.446v-1.407h1.025V41.293z    M123.4,38.404c0-1.444-0.984-2.454-2.364-2.454c-1.39,0-2.363,1.021-2.376,2.454c0.013,1.419,0.986,2.441,2.376,2.441   C122.416,40.848,123.4,39.823,123.4,38.404"></path>
	<path fill="#816D43" d="M133.018,33.111c0,0.41-0.291,0.713-0.672,0.713c-0.38,0-0.67-0.303-0.67-0.713   c0-0.402,0.29-0.707,0.67-0.707C132.727,32.404,133.018,32.709,133.018,33.111 M131.85,35.096h1.014v6.92h-1.014V35.096z"></path>
	<path fill="#816D43" d="M144.025,41.541c-0.488,0.329-1.015,0.514-1.563,0.525c-1.015,0-1.762-0.604-1.762-1.969v-3.953h-0.995   v-0.826h0.995v-1.824h1.011v1.824l2.193-0.012v0.838h-2.193v3.77c0,0.84,0.328,1.154,0.922,1.154c0.354,0,0.717-0.119,1.1-0.354   L144.025,41.541z"></path>
	<path fill="#816D43" d="M154.962,40.949c-0.55,0.746-1.433,1.117-2.53,1.117c-1.43,0-2.352-0.916-2.352-2.113   c0-1.208,0.957-1.971,2.585-1.98h2.274v-0.41c0-1.011-0.633-1.611-1.854-1.611c-0.762,0-1.469,0.285-2.193,0.785l-0.432-0.748   c0.889-0.59,1.639-0.934,2.818-0.934c1.711,0,2.65,0.906,2.666,2.389l0.014,4.572h-0.998L154.962,40.949L154.962,40.949z    M154.949,39.625v-0.826h-2.151c-1.157,0-1.761,0.354-1.761,1.115s0.621,1.259,1.589,1.259   C153.795,41.173,154.688,40.583,154.949,39.625"></path>
	<rect x="163.416" y="32.271" fill="#816D43" width="1.021" height="9.742"></rect>
	<path fill="#816D43" d="M26.932,0.464c1.38,0,2.59,0.263,3.624,0.79c1.036,0.527,1.882,1.249,2.539,2.17   c0.658,0.92,1.151,1.988,1.481,3.205c0.327,1.215,0.492,2.532,0.492,3.945v15.236H29.15V10.574c0-1.152-0.411-2.137-1.231-2.959   c-0.79-0.82-1.776-1.232-2.958-1.232c-1.184,0-2.17,0.412-2.961,1.232c-0.82,0.822-1.231,1.808-1.231,2.959v15.236H14.85V10.574   c0-1.152-0.412-2.137-1.232-2.959c-0.394-0.428-0.846-0.74-1.357-0.935c-0.509-0.199-1.042-0.297-1.601-0.297   c-1.218,0-2.22,0.412-3.008,1.232C6.83,8.437,6.419,9.423,6.419,10.574v15.236H0.5V1.155h5.917v2.169   C7.371,2.503,8.372,1.822,9.425,1.28c1.052-0.543,2.12-0.815,3.204-0.815c1.48,0,2.696,0.296,3.65,0.889   c0.953,0.591,1.807,1.416,2.564,2.466c0.888-0.953,2.039-1.751,3.451-2.392C23.71,0.787,25.256,0.464,26.932,0.464"></path>
	<path fill="#816D43" d="M63.573,1.106v24.705h-5.918V13.484c0-1.974-0.69-3.65-2.073-5.032c-1.381-1.379-3.057-2.07-5.029-2.07   c-0.953,0-1.865,0.182-2.735,0.544c-0.873,0.36-1.638,0.869-2.296,1.526c-1.38,1.382-2.07,3.058-2.07,5.032   c0,1.94,0.689,3.6,2.07,4.98c0.658,0.69,1.424,1.208,2.296,1.554c0.87,0.344,1.782,0.518,2.735,0.518   c0.985,0,1.873-0.164,2.663-0.494l2.122,5.276c-1.515,0.754-3.273,1.134-5.278,1.134c-1.808,0-3.477-0.335-5.004-1.011   c-1.53-0.672-2.854-1.602-3.972-2.788c-1.117-1.183-1.989-2.564-2.613-4.143c-0.626-1.577-0.937-3.253-0.937-5.029   c0-1.81,0.311-3.501,0.937-5.079c0.625-1.579,1.497-2.959,2.613-4.145c1.119-1.183,2.442-2.112,3.972-2.783   c1.527-0.675,3.196-1.013,5.004-1.013c1.609,0,3.04,0.247,4.291,0.742c1.249,0.491,2.35,1.116,3.305,1.872v-1.97H63.573z"></path>
	<path fill="#816D43" d="M92.32,23.346c0,1.779-0.336,3.452-1.012,5.033c-0.674,1.576-1.602,2.958-2.783,4.143   c-1.188,1.18-2.564,2.119-4.144,2.808c-1.581,0.692-3.273,1.039-5.081,1.039c-1.481,0-2.877-0.229-4.193-0.693   c-1.316-0.459-2.53-1.118-3.647-1.974l4.29-4.238c1.051,0.659,2.234,0.986,3.55,0.986c2.004,0,3.681-0.707,5.031-2.121   c1.381-1.381,2.066-3.039,2.066-4.98v-9.912c0-1.906-0.687-3.584-2.066-5.029c-1.382-1.383-3.059-2.072-5.031-2.072   c-1.909,0-3.584,0.689-5.031,2.072c-1.381,1.445-2.07,3.124-2.07,5.029c0,1.972,0.689,3.649,2.07,5.03   c1.447,1.381,3.123,2.072,5.031,2.072c0.986,0,1.873-0.165,2.662-0.494l2.221,5.522c-1.481,0.593-3.076,0.888-4.785,0.888h-0.098   c-1.774,0-3.453-0.335-5.031-1.011c-1.577-0.672-2.958-1.602-4.14-2.786c-1.185-1.184-2.121-2.565-2.812-4.143   c-0.692-1.578-1.038-3.271-1.038-5.079s0.297-3.502,0.89-5.079c0.591-1.581,1.421-2.961,2.491-4.143   c1.065-1.184,2.348-2.111,3.847-2.787c1.494-0.675,3.129-1.013,4.905-1.013c1.708,0,3.224,0.257,4.537,0.766   c1.313,0.511,2.464,1.143,3.45,1.898V1.155h5.92V23.346z"></path>
	<path fill="#816D43" d="M107.707,0.464c1.611,0,3.078,0.303,4.393,0.913c1.312,0.609,2.439,1.448,3.377,2.514   c0.936,1.068,1.657,2.311,2.17,3.724c0.508,1.416,0.764,2.926,0.764,4.54v13.658h-5.915V12.154c0-1.648-0.576-3.011-1.729-4.094   c-1.119-1.117-2.465-1.678-4.041-1.678c-1.615,0-2.979,0.561-4.095,1.678c-1.121,1.117-1.677,2.48-1.677,4.094v13.657h-5.918V1.155   h5.918V3.03c0.885-0.758,1.888-1.373,3.009-1.85C105.078,0.703,106.332,0.464,107.707,0.464"></path>
	<path fill="#816D43" d="M144.247,1.155v24.656h-5.919v-1.869c-0.887,0.754-1.891,1.371-3.008,1.85   c-1.117,0.473-2.363,0.712-3.745,0.712c-1.609,0-3.075-0.304-4.388-0.911c-1.315-0.605-2.446-1.438-3.383-2.49   c-0.933-1.054-1.658-2.285-2.171-3.699c-0.508-1.414-0.763-2.924-0.763-4.538V1.155h5.919v13.709c0,1.546,0.575,2.894,1.728,4.044   c1.115,1.117,2.465,1.678,4.041,1.678c1.612,0,2.977-0.561,4.094-1.678c1.115-1.116,1.676-2.466,1.676-4.044V1.155H144.247z"></path>
	<path fill="#816D43" d="M157.068,10.525c0.396,0.097,1.055,0.33,1.976,0.691c0.918,0.362,1.864,0.861,2.834,1.504   c0.97,0.642,1.813,1.438,2.538,2.392c0.727,0.955,1.084,2.089,1.084,3.402c0,1.15-0.188,2.204-0.564,3.158   c-0.379,0.952-0.929,1.791-1.648,2.516c-0.727,0.722-1.615,1.28-2.666,1.674c-1.051,0.396-2.232,0.594-3.551,0.594   c-2.01,0-3.87-0.363-5.596-1.085c-1.729-0.722-3.115-1.611-4.168-2.665l4.094-4.093c0.854,1.022,1.768,1.679,2.736,1.977   c0.969,0.295,1.779,0.442,2.439,0.442c1.017,0,1.775-0.198,2.27-0.59c0.491-0.396,0.739-0.872,0.739-1.429   c0-0.399-0.163-0.742-0.492-1.038c-0.331-0.294-0.717-0.542-1.161-0.741c-0.439-0.195-0.895-0.351-1.354-0.468   c-0.461-0.114-0.839-0.22-1.134-0.319c-0.397-0.13-1.061-0.362-1.998-0.69c-0.938-0.328-1.893-0.807-2.86-1.431   c-0.97-0.623-1.815-1.413-2.54-2.368c-0.723-0.952-1.083-2.104-1.083-3.452c0-1.38,0.239-2.572,0.713-3.576   c0.479-1.001,1.109-1.832,1.9-2.489c0.788-0.657,1.692-1.141,2.71-1.454c1.021-0.313,2.076-0.47,3.158-0.47   c1.679,0,3.099,0.197,4.265,0.592c1.17,0.393,2.131,0.822,2.888,1.281c0.853,0.561,1.575,1.184,2.168,1.873l-4.143,4.145   c-0.658-0.855-1.382-1.478-2.166-1.876c-0.793-0.392-1.63-0.59-2.52-0.59c-0.688,0-1.373,0.165-2.045,0.495   c-0.676,0.327-1.015,0.853-1.015,1.578c0,0.394,0.147,0.729,0.447,1.01c0.293,0.277,0.653,0.509,1.084,0.692   c0.425,0.178,0.877,0.335,1.353,0.468C156.238,10.312,156.678,10.427,157.068,10.525"></path>
</g>
<rect x="-242.309" y="18.391" fill="#816D43" width="106.021" height="73.627"></rect>
</svg>