<?xml version="1.0" encoding="UTF-8"?><svg id="a" xmlns="http://www.w3.org/2000/svg" viewBox="0 0 766 145"><defs><style>.b{fill:#fff;}</style></defs><path class="b" d="m260.63,46.32c-4.65-4.06-11.21-6.09-19.67-6.09h-20.89c-.16,0-.31.01-.46.02h-3.12v69.59h11.54v-20h-.16v-.59c.06.01.11.01.16.02v.57h8.45c1.43.05,2.68.07,3.51.07,7.95,0,14.53-2.24,19.73-6.76,5.47-4.71,8.21-11.01,8.21-18.85s-2.45-13.81-7.31-18h0Zm-9.97,30.36c-1.62,1.25-3.53,2.19-5.72,2.75-1.59.43-3.09.7-4.51.8-.53.05-1.06.07-1.56.07-1.13,0-4.91-.04-7.74-.07h-3.1v-.02h-.16v-30.15h12.57c2.37,0,4.5.3,6.4.91,6.14,2.01,9.21,6.46,9.21,13.37,0,5.5-1.8,9.61-5.39,12.35h0Z"/><path class="b" d="m636.66,44.04l-1.51-3.8h-12.17l-25.98,69.53h11.82l.74-2.03.11-.32,2.73-7.56,1.57-4.38h.01l10.99-30.36,4.23-11.71.27-.74,4.24,11.42,8.44,22.47h-.07l8.66,23.24h12.18l-26.26-65.72h0Z"/><rect class="b" x="416.58" y="40.23" width="11.35" height="69.59"/><polygon class="b" points="742.6 99.44 742.6 109.82 703.95 109.82 703.95 40.23 715.3 40.23 715.3 99.44 742.6 99.44"/><path class="b" d="m340.42,84.04c6.87,0,15.15-4.45,19.76-12.46.01-.04.02-.07.05-.11,1.3-2.58,2.04-5.4,2.22-8.48.02-.47.04-.96.04-1.44,0-14.21-9-21.32-26.99-21.32h-20.22c-.09,0-.2,0-.28.02h-3.22v69.59h11.21l.02-25.74,24.75,25.71h13.25s-24.39-25.71-24.43-25.75h2.19l1.66-.02h0Zm-5.45-8.17h-11.99v-25.75h12.18c4.66,0,8.33.86,11.09,2.58,3.21,2.07,4.86,5.23,4.86,9.47,0,4.76-1.9,8.34-5.63,10.76-1.7,1.13-3.63,1.91-5.82,2.46-.01,0-.02,0-.02.01-1.53.35-3.1.47-4.66.47h0Z"/><polygon class="b" points="548.6 40.26 537.29 40.26 518.65 85.82 516.37 91.37 515.96 92.38 515.86 92.63 515.76 92.38 515.35 91.37 513.07 85.82 494.44 40.26 482.96 40.26 477 109.82 488.43 109.82 492.53 61.98 492.63 62.25 510.56 106.04 510.74 106.04 520.98 106.04 521.16 106.04 539.09 62.25 539.19 61.98 543.28 109.82 554.54 109.82 548.6 40.26"/><polygon class="b" points="138.72 38.12 116.05 51.24 50.34 51.24 27.64 38.12 83.19 6.05 138.72 38.12"/><polygon class="b" points="79.01 115.52 79.01 141.68 23.4 109.58 23.4 45.35 46.01 58.41 79.01 115.52"/><polygon class="b" points="142.96 45.38 142.96 109.58 87.38 141.68 87.38 115.47 120.32 58.44 142.96 45.38"/></svg>