<?xml version="1.0" encoding="UTF-8"?>
<svg id="Layer_2" data-name="Layer 2" xmlns="http://www.w3.org/2000/svg" version="1.1" viewBox="0 0 144 30">
  <defs>
    <style>
      .cls-1 {
        fill: #485c6a;
      }

      .cls-1, .cls-2, .cls-3, .cls-4 {
        stroke-width: 0px;
      }

      .cls-2 {
        fill: #f6521f;
      }

      .cls-3 {
        fill: #3f3f3f;
      }

      .cls-4 {
        fill: #fff;
      }
    </style>
  </defs>
  <rect class="cls-3" x="46.5" y=".7" width="15.6" height="28.7"/>
  <rect class="cls-1" x="62.1" y=".7" width="15.6" height="14.4"/>
  <rect class="cls-2" x="62.1" y="15" width="15.6" height="14.4"/>
  <path class="cls-2" d="M13.1,29.4c-1.7,0-3.4-.3-4.9-1-1.5-.6-2.9-1.5-4-2.7-1.1-1.2-1.9-2.6-2.5-4.2l4.8-2.1c.7,1.5,1.7,2.7,2.9,3.6,1.2.9,2.6,1.3,4.1,1.3s1.5-.1,2.1-.4c.6-.2,1-.6,1.3-1,.3-.4.5-1,.5-1.6s-.2-1.2-.6-1.7c-.4-.5-1-.8-1.9-1.1l-5.5-1.8c-2.2-.7-3.9-1.8-5-3.1-1.1-1.3-1.7-2.9-1.7-4.8s.4-3.1,1.2-4.3c.8-1.2,1.9-2.2,3.4-2.9,1.5-.7,3.1-1,5-1s3.2.3,4.6.9c1.4.6,2.7,1.4,3.7,2.4,1,1,1.8,2.3,2.3,3.8l-4.7,2.1c-.5-1.3-1.3-2.3-2.4-3.1-1-.7-2.2-1.1-3.6-1.1s-1.5.1-2.1.4c-.6.2-1.1.6-1.4,1.1-.3.5-.5,1-.5,1.6s.2,1.2.6,1.7c.4.5,1.1.9,1.9,1.1l5.4,1.7c2.2.7,3.9,1.7,5,3,1.1,1.3,1.7,2.9,1.7,4.8s-.4,3.1-1.3,4.3c-.8,1.3-2,2.2-3.5,3-1.5.7-3.2,1.1-5.2,1.1Z"/>
  <path class="cls-2" d="M26.3,29.4V.7h18.8v5.2h-13v6.5h12.2v5.2h-12.2v6.6h13v5.2h-18.8Z"/>
  <path class="cls-4" d="M62.1,29.4c-2.1,0-4-.4-5.8-1.1-1.8-.7-3.4-1.7-4.7-3.1-1.3-1.3-2.4-2.8-3.1-4.6-.7-1.7-1.1-3.6-1.1-5.7s.4-3.9,1.1-5.7c.7-1.7,1.8-3.3,3.1-4.6,1.3-1.3,2.9-2.3,4.7-3,1.8-.7,3.8-1.1,5.9-1.1s4.1.4,5.9,1.1c1.8.7,3.4,1.7,4.7,3,1.3,1.3,2.4,2.8,3.1,4.6.7,1.7,1.1,3.6,1.1,5.7s-.4,3.9-1.1,5.7c-.7,1.7-1.8,3.3-3.1,4.6-1.3,1.3-2.9,2.3-4.7,3.1-1.8.7-3.7,1.1-5.8,1.1ZM62.1,24.2c1.3,0,2.5-.2,3.5-.7,1.1-.4,2-1.1,2.9-1.9.8-.8,1.5-1.8,1.9-2.9.4-1.1.7-2.4.7-3.7s-.2-2.6-.7-3.7c-.4-1.1-1.1-2.1-1.9-2.9-.8-.8-1.8-1.5-2.9-1.9-1.1-.4-2.3-.7-3.5-.7s-2.5.2-3.5.7c-1.1.4-2,1.1-2.9,1.9-.8.8-1.5,1.8-1.9,2.9-.4,1.1-.7,2.3-.7,3.7s.2,2.6.7,3.7,1.1,2.1,1.9,2.9c.8.8,1.8,1.4,2.9,1.9,1.1.4,2.3.7,3.5.7Z"/>
  <path class="cls-2" d="M93.6,29.4c-2,0-3.9-.4-5.6-1.1-1.7-.7-3.2-1.7-4.5-3-1.3-1.3-2.3-2.8-3-4.6-.7-1.7-1.1-3.7-1.1-5.7s.3-4,1-5.7c.7-1.8,1.7-3.3,3-4.6,1.3-1.3,2.8-2.3,4.5-3,1.7-.7,3.6-1.1,5.6-1.1s3.8.3,5.4,1c1.6.7,3,1.6,4.1,2.7s1.9,2.4,2.4,3.7l-5.1,2.5c-.5-1.3-1.3-2.5-2.5-3.3-1.2-.9-2.6-1.3-4.3-1.3s-3.1.4-4.3,1.2c-1.2.8-2.2,1.8-2.9,3.2-.7,1.4-1,2.9-1,4.8s.4,3.4,1.1,4.8c.7,1.4,1.7,2.4,3,3.2,1.3.8,2.7,1.2,4.4,1.2s2.5-.2,3.6-.7c1.1-.5,2-1.2,2.7-2.1.7-.9,1-2,1-3.3v-2.3l2.7,2.2h-10.1v-4.9h13.3v3c0,2.3-.4,4.2-1.1,5.9s-1.8,3.1-3,4.2c-1.3,1.1-2.7,1.9-4.2,2.5-1.6.5-3.1.8-4.7.8Z"/>
  <path class="cls-2" d="M109.4,29V1.1h5.8v27.9h-5.8Z"/>
  <path class="cls-2" d="M119.2,29V1.1h4.5l15,19.7-2.4.6V1.1h5.8v27.9h-4.5l-14.7-19.9,2.2-.6v20.4h-5.8Z"/>
</svg>