<svg width="150" height="86" viewBox="0 0 150 86" fill="none" xmlns="http://www.w3.org/2000/svg">
<path fill-rule="evenodd" clip-rule="evenodd" d="M50.7027 0C50.7085 0.155899 50.7085 0.30025 50.7085 0.444601C50.7085 14.1175 50.7085 27.802 50.7143 41.4807C50.7143 42.9646 50.7143 44.4486 50.5355 45.9152C50.1837 48.7214 49.3935 51.3947 48.0497 53.866C45.2929 58.9414 41.3249 62.8158 36.1804 65.4372C33.7061 66.6902 31.0589 67.4177 28.2963 67.7006C24.4898 68.0875 20.7525 67.7757 17.1132 66.5574C13.3125 65.2871 10.1001 63.1103 7.32016 60.2406C4.94398 57.7751 3.04649 54.9804 1.77189 51.7816C0.774127 49.2757 0.220454 46.6658 0.0589655 43.9636C-0.148662 40.5453 0.180081 37.1848 1.23552 33.9167C2.41208 30.2675 4.373 27.0687 6.97411 24.2741C9.41373 21.6469 12.2052 19.5047 15.5099 18.0612C18.0476 16.9468 20.7121 16.3348 23.4805 16.1731C27.2639 15.9479 30.9147 16.4791 34.4444 17.8707C36.8552 18.8176 39.0468 20.1514 41.0192 21.8201C41.1404 21.9183 41.2499 22.0915 41.2499 22.2301C41.2672 25.2499 41.2672 28.2697 41.2672 31.278C41.2672 31.3069 41.2499 31.3415 41.2442 31.4397C41.1519 31.3184 41.1 31.2318 41.0423 31.1567C39.3409 28.5584 37.207 26.4162 34.5193 24.8515C32.247 23.5119 29.7843 22.7901 27.1601 22.6111C24.4667 22.4091 21.8368 22.6747 19.2645 23.5581C13.6759 25.4866 8.19681 31.0874 6.95681 37.8315C6.1436 42.2429 6.50118 46.5272 8.54285 50.5517C10.8844 55.1941 14.3622 58.6643 19.3164 60.46C21.8714 61.3838 24.5186 61.6148 27.212 61.4185C31.9471 61.0663 35.7766 58.9125 38.9372 55.4539C40.7885 53.4157 42.2246 51.1465 43.1128 48.5424C43.6838 46.9141 44.0183 45.2512 44.0933 43.5305C44.1221 42.7856 44.1394 42.035 44.1394 41.2786V0H50.6854H50.7027Z" fill="#032776"/>
<path fill-rule="evenodd" clip-rule="evenodd" d="M105.703 42.9082C105.709 44.4933 105.518 46.0441 105.171 47.5778C104.154 52.0644 102.103 56.0301 98.9771 59.4179C94.996 63.7213 90.1077 66.4167 84.318 67.4525C82.9428 67.6986 81.5272 67.8073 80.1347 67.8474C75.9398 67.9618 71.9471 67.0691 68.174 65.2378C65.8396 64.1048 63.7133 62.634 61.8007 60.86C60.0268 59.1947 58.5303 57.2948 57.444 55.1088C56.56 53.3405 55.9937 51.4864 55.7915 49.5292C55.5661 47.2688 55.8435 45.0599 56.508 42.8967C57.3516 40.1842 58.5072 37.6204 60.1597 35.2971C61.1536 33.9065 62.2687 32.6246 63.5804 31.5144C63.6266 31.4743 63.6728 31.44 63.7653 31.4286C63.6786 31.5487 63.6093 31.6746 63.5341 31.7834C61.9683 34.204 60.9918 36.8307 60.6451 39.6863C60.0904 44.3617 61.038 48.7223 63.7595 52.5851C66.9606 57.106 71.3173 60.0016 76.8122 61.129C80.2618 61.8272 83.6882 61.6383 87.0915 60.8543C90.3619 60.0989 93.3781 58.8056 96.0649 56.8084C98.9713 54.6395 101.254 51.9442 103.062 48.8368C104.137 46.9941 105.015 45.0656 105.662 43.0283C105.668 42.9825 105.691 42.9425 105.714 42.9082H105.703Z" fill="#032776"/>
<path fill-rule="evenodd" clip-rule="evenodd" d="M54.303 40.6635C54.2856 39.0727 54.4879 37.5276 54.8346 35.994C55.84 31.5018 57.8972 27.5418 61.0291 24.1484C65.0046 19.8565 69.8989 17.1612 75.6889 16.114C77.0584 15.868 78.4741 15.7649 79.8609 15.7249C84.0561 15.6047 88.049 16.5089 91.8223 18.3286C94.1741 19.4617 96.289 20.9324 98.1959 22.7063C99.9872 24.3716 101.472 26.2715 102.553 28.4574C103.437 30.2257 104.015 32.0798 104.205 34.0483C104.437 36.2973 104.159 38.5176 103.489 40.6807C102.651 43.3932 101.495 45.9511 99.8369 48.2745C98.8546 49.6765 97.7394 50.9526 96.4219 52.0685C96.3757 52.1085 96.3294 52.1371 96.237 52.1429C96.3121 52.0284 96.393 51.9082 96.4681 51.7881C98.0341 49.3732 99.0106 46.7408 99.3573 43.8853C99.9121 39.2157 98.9644 34.8552 96.2428 30.9925C93.0415 26.4603 88.6846 23.5762 83.1778 22.4488C79.7338 21.7392 76.313 21.9224 72.9037 22.7178C69.6274 23.4789 66.6168 24.7664 63.9241 26.775C61.0233 28.9324 58.735 31.6277 56.9379 34.7293C55.8632 36.5719 54.9848 38.5062 54.3376 40.5376C54.3319 40.5834 54.2972 40.6235 54.2856 40.6693L54.303 40.6635Z" fill="#1AA0DD"/>
<path fill-rule="evenodd" clip-rule="evenodd" d="M144.947 55.7023C142.17 58.14 138.902 59.6293 135.041 59.9144C132.356 60.1064 129.705 59.8853 127.158 58.9544C122.202 57.1335 118.732 53.637 116.393 48.9594C114.359 44.9044 113.996 40.5934 114.797 36.1486C116.047 29.3417 121.522 23.71 127.111 21.7669C129.67 20.8768 132.304 20.615 134.995 20.807C137.617 20.9931 140.072 21.7262 142.348 23.0701C143.27 23.617 146.451 25.0365 147.223 25.0598C151.499 24.9958 149.736 21.4876 149.068 20.3706C149.039 20.2484 148.941 20.1146 148.849 20.0332C148.324 19.591 147.8 19.1721 147.247 18.7765C145.708 17.6711 144.048 16.7461 142.273 16.0421C138.752 14.6517 135.087 14.1164 131.324 14.3317C128.546 14.5004 125.89 15.1229 123.343 16.2458C120.064 17.7002 117.269 19.8586 114.831 22.4999C112.226 25.3332 110.261 28.5388 109.097 32.2157C108.037 35.5202 107.708 38.9062 107.916 42.3504C108.077 45.0673 108.63 47.697 109.633 50.2277C110.901 53.4508 112.785 56.2666 115.171 58.7508C117.937 61.6365 121.153 63.8298 124.945 65.1155C128.587 66.3489 132.321 66.6631 136.13 66.2675C138.891 65.9824 141.53 65.2435 143.996 63.9752C145.823 63.0386 147.494 61.939 149.01 60.694C151.488 54.0907 144.947 55.7081 144.947 55.7081V55.7023Z" fill="#1AA0DD"/>
<path fill-rule="evenodd" clip-rule="evenodd" d="M65.4457 81.9501V79.7952C65.567 79.7779 65.6768 79.7779 65.7981 79.7779C67.2655 79.7721 68.7387 79.7779 70.2177 79.7721C71.0958 79.7548 71.8122 79.4428 72.2686 78.6513C72.7193 77.8714 72.5979 76.2653 71.9509 75.676C71.5234 75.289 71.0207 75.0925 70.4661 75.0867C68.5192 75.0694 66.5781 75.081 64.6311 75.0694C64.4347 75.0694 64.4116 75.1676 64.4116 75.3236C64.4174 76.1267 64.4116 76.9181 64.4116 77.7269C64.4116 80.188 64.4058 82.6607 64.4174 85.1334C64.4174 85.4164 64.3423 85.5147 64.065 85.4973C63.6779 85.4742 63.2966 85.4858 62.9211 85.4916C62.7246 85.4973 62.6611 85.4338 62.6669 85.2374C62.6842 84.8849 62.6726 84.5325 62.6726 84.1801C62.6726 80.5347 62.6726 76.8777 62.6669 73.2265C62.6611 72.9492 62.742 72.8683 63.0251 72.8741C65.3533 72.8798 67.6873 72.8683 70.0271 72.8914C71.4136 72.8914 72.6326 73.3305 73.5165 74.4859C74.0422 75.1676 74.256 75.9707 74.3427 76.8141C74.4351 77.7501 74.3484 78.6513 73.9671 79.5006C73.5223 80.4885 72.8059 81.2106 71.7949 81.615C71.7429 81.6381 71.6967 81.6612 71.5927 81.7075C72.5864 82.9553 73.5685 84.1859 74.5969 85.4742C74.4467 85.48 74.36 85.4916 74.2676 85.4916C73.6147 85.4916 72.9561 85.4916 72.2975 85.4973C72.1011 85.5031 71.9624 85.4453 71.8353 85.272C71.0323 84.2437 70.2177 83.2211 69.4147 82.1928C69.2702 82.0137 69.1374 81.9443 68.9236 81.9443C67.8837 81.9617 66.8554 81.9501 65.8155 81.9501H65.4399H65.4457Z" fill="#032776"/>
<path fill-rule="evenodd" clip-rule="evenodd" d="M54.9602 72.8337C55.7632 72.8799 56.5778 72.8394 57.3462 72.9839C59.0678 73.2901 60.1597 74.4224 60.8414 75.9707C61.3382 77.103 61.4307 78.3047 61.3902 79.5295C61.3209 81.1818 60.8414 82.6896 59.7437 83.9548C58.9407 84.8619 57.9643 85.4223 56.7511 85.4685C55.5552 85.5147 54.3478 85.5262 53.1519 85.4743C51.7769 85.4049 50.7197 84.7001 49.8935 83.6371C48.7727 82.1755 48.4434 80.5001 48.4954 78.7091C48.5301 77.3977 48.8016 76.1729 49.5353 75.0695C50.4944 73.6309 51.8173 72.8741 53.5563 72.8741H54.9659V72.8279L54.9602 72.8337ZM54.9428 75.0868V75.0695H53.5852C52.5048 75.0521 51.6556 75.5027 51.049 76.3867C50.0611 77.8367 50.0091 79.437 50.5348 81.0489C50.9392 82.2794 52.0427 83.3713 53.8047 83.302C54.6366 83.2731 55.4801 83.2962 56.3178 83.2962C57.531 83.2962 58.4554 82.7474 59.0447 81.7133C59.8939 80.217 59.8824 78.6282 59.2411 77.0684C58.7905 75.9765 57.9759 75.2254 56.7453 75.0926C56.156 75.0175 55.5494 75.0752 54.9428 75.0752V75.0868Z" fill="#032776"/>
<path fill-rule="evenodd" clip-rule="evenodd" d="M18.396 72.8336C19.199 72.8799 20.0136 72.851 20.8166 72.9839C22.4054 73.2612 23.451 74.2837 24.1559 75.6876C24.7105 76.8084 24.8838 78.0101 24.8549 79.2464C24.8318 80.5809 24.5718 81.8577 23.8728 83.0189C23.1217 84.2552 22.1223 85.1623 20.6433 85.428C20.5104 85.4454 20.3718 85.4742 20.2447 85.4742C19.0257 85.4742 17.7951 85.5262 16.5761 85.4685C15.1145 85.3991 14.0226 84.6134 13.1907 83.4407C12.3356 82.2505 11.9832 80.8929 11.9255 79.4601C11.8792 78.1891 12.0121 76.9413 12.5783 75.7858C13.4969 73.9198 14.9585 72.8625 17.1019 72.8856H18.3902C18.3902 72.8856 18.396 72.851 18.396 72.8394V72.8336ZM18.3613 83.302C18.8061 83.302 19.2452 83.2962 19.6843 83.302C21.0073 83.3309 21.9778 82.7185 22.5729 81.5688C23.2893 80.1939 23.3008 78.7438 22.7809 77.311C22.3245 76.0285 21.273 74.9828 19.5225 75.0579C18.6848 75.0925 17.8471 75.0752 16.9979 75.0752C15.8944 75.0752 15.0278 75.549 14.4443 76.4675C13.468 77.9754 13.3987 79.5988 14.0457 81.228C14.5945 82.6145 15.6691 83.354 17.2116 83.302C17.5929 83.2847 17.9742 83.302 18.3497 83.302H18.3613Z" fill="#032776"/>
<path fill-rule="evenodd" clip-rule="evenodd" d="M0.0419922 85.4685V72.8799H0.394404C2.11602 72.8799 3.85497 72.8856 5.57659 72.8799C7.59862 72.8625 9.03715 73.8158 9.96151 75.5605C10.6259 76.8084 10.7761 78.1718 10.7183 79.5641C10.649 80.7831 10.3717 81.9617 9.7362 83.0189C8.99671 84.2553 7.99147 85.1507 6.51828 85.4223C6.3103 85.4569 6.09076 85.48 5.88278 85.48C4.01673 85.4858 2.15646 85.48 0.290413 85.48C0.215309 85.48 0.140205 85.4742 0.0419922 85.4627V85.4685ZM1.73472 79.1771C1.73472 80.4423 1.7405 81.7075 1.73472 82.9727C1.73472 83.2442 1.80983 83.3078 2.06403 83.3078C3.22525 83.2905 4.39225 83.2847 5.5477 83.302C6.85913 83.3251 7.81815 82.7416 8.40743 81.6151C9.18736 80.1707 9.19314 78.6398 8.58075 77.155C8.01458 75.78 6.98045 75.0232 5.4206 75.0579C4.3287 75.0926 3.23103 75.0752 2.13913 75.0752C1.7405 75.0752 1.73472 75.0752 1.73472 75.4565V79.1771V79.1771Z" fill="#032776"/>
<path fill-rule="evenodd" clip-rule="evenodd" d="M36.7446 83.302V85.48H36.3864C34.6706 85.48 32.9548 85.4742 31.2331 85.4858C29.5346 85.5147 28.2579 84.7694 27.3046 83.406C26.2474 81.9097 25.9701 80.2112 26.0741 78.4202C26.1434 77.2648 26.4091 76.1671 27.0389 75.1792C27.9748 73.7118 29.2978 72.8856 31.0656 72.8799C32.8392 72.8625 34.6244 72.8799 36.398 72.8799H36.7446V75.0752H36.4095C34.763 75.0752 33.0992 75.1214 31.4585 75.0579C29.5808 74.9828 28.4312 76.2133 28.0268 77.6288C27.6455 78.9748 27.6686 80.3152 28.3503 81.5746C28.9511 82.7069 29.8986 83.3136 31.2158 83.3078C32.9316 83.302 34.6475 83.3078 36.3691 83.3078H36.7446V83.302Z" fill="#032776"/>
<path fill-rule="evenodd" clip-rule="evenodd" d="M113.709 83.2789V85.4627H113.351C111.635 85.4627 109.913 85.4396 108.197 85.4685C106.487 85.4916 105.211 84.7405 104.257 83.3771C103.2 81.8692 102.923 80.1823 103.027 78.3971C103.102 77.2359 103.362 76.1382 103.992 75.1561C104.927 73.6829 106.256 72.8568 108.018 72.8394C109.803 72.8336 111.577 72.8394 113.351 72.8394H113.686V75.0348H113.362C111.71 75.0348 110.052 75.0868 108.405 75.0174C106.516 74.9423 105.378 76.1787 104.974 77.5883C104.592 78.946 104.615 80.2863 105.286 81.5399C105.898 82.6723 106.845 83.2789 108.163 83.2789C109.884 83.2731 111.6 83.2731 113.316 83.2731H113.697L113.709 83.2789Z" fill="#1AA0DD"/>
<path fill-rule="evenodd" clip-rule="evenodd" d="M41.8171 85.4454V75.0752H37.8481V73.6425C37.8481 73.1341 38.0985 72.8799 38.5992 72.8799C41.4589 72.8799 44.3187 72.8799 47.1784 72.8741C47.4326 72.8741 47.5366 72.9319 47.525 73.2034C47.5019 73.7118 47.525 74.2202 47.525 74.7286C47.525 74.8326 47.5192 74.9366 47.5019 75.0752H47.1553C46.1211 75.0752 45.087 75.0694 44.0529 75.0752C43.4983 75.0752 43.5676 75.0001 43.5676 75.5489C43.5618 78.7091 43.5618 81.875 43.5618 85.0352V85.4454H41.8171V85.4454Z" fill="#032776"/>
<path fill-rule="evenodd" clip-rule="evenodd" d="M82.1481 72.851C82.9395 72.903 83.7599 72.8683 84.5283 73.0012C86.2557 73.3132 87.3418 74.4397 88.0177 75.988C88.5204 77.1261 88.6186 78.322 88.5723 79.5526C88.503 81.2049 88.0351 82.707 86.9258 83.9779C86.1344 84.885 85.1464 85.4396 83.9332 85.4858C82.7373 85.5378 81.5299 85.5436 80.3398 85.4858C78.9648 85.4338 77.9076 84.7348 77.0756 83.6602C75.9549 82.1986 75.6256 80.5232 75.6776 78.7322C75.7238 77.4381 75.9895 76.2018 76.7175 75.0983C77.6765 73.6598 78.9995 72.8972 80.7442 72.8972H82.1538V72.851H82.1481ZM82.125 75.1157V75.0925H80.7789C79.6927 75.0868 78.8319 75.5316 78.2427 76.4098C77.249 77.8714 77.1912 79.4659 77.7285 81.0893C78.1329 82.3199 79.2248 83.406 80.9926 83.3367C81.8303 83.2905 82.668 83.3367 83.5115 83.3309C84.7247 83.3309 85.6433 82.7821 86.2383 81.7537C87.0934 80.2458 87.076 78.6687 86.4348 77.103C85.9841 76.0169 85.1753 75.2601 83.9506 75.1272C83.3613 75.0694 82.7373 75.1214 82.1365 75.1214L82.125 75.1157Z" fill="#1AA0DD"/>
<path d="M100.959 83.6024C100.959 84.3303 100.728 84.6885 100.26 84.6885C99.9245 84.6885 99.549 84.4632 99.1272 84.0126L92.3794 76.7622V84.5672H90.5596V74.2837C90.5596 74.0238 90.6347 73.7984 90.7676 73.602C90.9004 73.4056 91.0911 73.3074 91.3279 73.3074C91.6746 73.3074 92.0154 73.5038 92.3736 73.8851L99.1214 81.124V73.3074H100.947V83.5966L100.959 83.6024Z" fill="#1AA0DD"/>
<path d="M129.862 85.3472L127.453 85.3298L125.651 81.8462H120.543L121.682 79.6912H124.53L122.658 76.0978L117.811 85.3298H115.39L121.231 74.0758C121.381 73.7811 121.589 73.5154 121.855 73.2727C122.167 72.9896 122.456 72.8452 122.698 72.8452C122.976 72.8452 123.259 72.9781 123.559 73.2496C123.796 73.4807 124.01 73.7522 124.166 74.0758L129.862 85.3472V85.3472Z" fill="#1AA0DD"/>
<path d="M139.568 85.3471H130.29V72.8856H132.168V83.1749H139.568V85.3471Z" fill="#1AA0DD"/>
<path d="M149.771 85.3471H140.493V72.8856H142.364V83.1749H149.771V85.3471Z" fill="#1AA0DD"/>
</svg>
